<svg width="151" height="94" viewBox="0 0 151 94" fill="none" xmlns="http://www.w3.org/2000/svg">
<path fill-rule="evenodd" clip-rule="evenodd" d="M54.8818 83.4188H95.5635V9.98535H54.8818V83.4188Z" fill="#FF5F00"/>
<path fill-rule="evenodd" clip-rule="evenodd" d="M57.4645 46.7018C57.4645 31.804 64.4088 18.5354 75.2224 9.98511C67.3133 3.73096 57.3353 0 46.4895 0C20.8135 0 0 20.9095 0 46.7018C0 72.4942 20.8135 93.4037 46.4895 93.4037C57.3353 93.4037 67.3133 89.6727 75.2224 83.4186C64.4088 74.8669 57.4645 61.5997 57.4645 46.7018Z" fill="#EB001B"/>
<path fill-rule="evenodd" clip-rule="evenodd" d="M148.994 75.6414V73.8291H148.523L147.982 75.0758L147.439 73.8291H146.968V75.6414H147.3V74.2741L147.809 75.4533H148.154L148.662 74.2715V75.6414H148.994ZM146.01 75.6414V74.1379H146.614V73.8317H145.077V74.1379H145.68V75.6414H146.01ZM150.446 46.7018C150.446 72.4942 129.631 93.4037 103.957 93.4037C93.1107 93.4037 83.1314 89.6727 75.2236 83.4186C86.0372 74.8682 92.9815 61.5997 92.9815 46.7018C92.9815 31.8053 86.0372 18.5367 75.2236 9.98511C83.1314 3.73096 93.1107 0 103.957 0C129.631 0 150.446 20.9095 150.446 46.7018Z" fill="#F79E1B"/>
</svg>
