<svg width="596" height="105" viewBox="0 0 596 105" fill="none" xmlns="http://www.w3.org/2000/svg">
<path d="M113.276 36.9572L97.2645 68.791C96.8904 69.5304 96.129 69.9985 95.2971 69.9985H63.2301C62.4115 69.9985 61.879 69.141 62.2443 68.4147L78.0665 36.9528C78.6871 35.719 78.6871 34.2708 78.0665 33.0414L66.4562 9.95792C66.0821 9.21851 65.3207 8.75036 64.4889 8.75036H58.829C58.0103 8.75036 57.4778 9.6079 57.8431 10.3342L69.2642 33.0457C69.8847 34.2796 69.8847 35.7277 69.2642 36.9572L35.6479 103.792C35.2738 104.532 34.5124 105 33.6806 105H1.60921C0.790593 105 0.25805 104.142 0.623348 103.416L34.0547 36.9572C34.6753 35.7234 34.6753 34.2752 34.0547 33.0457L18.2325 1.58382C17.8672 0.857536 18.3997 0 19.2183 0H95.2971C96.129 0 96.8948 0.468145 97.2645 1.20755L113.276 33.0414C113.897 34.2752 113.897 35.7234 113.276 36.9528V36.9572Z" fill="white"/>
<path d="M555.882 102.327C555.431 102.327 551.324 102.282 550.918 102.191V92.038C551.324 92.1283 553.716 92.1283 554.212 92.1283C559.041 92.1283 561.433 90.594 562.335 86.7583C562.335 86.5778 562.832 84.6374 562.741 84.4568L545.909 36.0367H560.395L570.683 73.8523H570.909L581.198 36.0367H595.097L578.445 85.4947C574.294 97.9044 568.247 102.327 555.882 102.327Z" fill="white"/>
<path d="M520.774 44.7459C514.998 44.7459 510.847 49.1232 510.395 55.17H530.928C530.657 48.9878 526.641 44.7459 520.774 44.7459ZM531.108 69.6103H543.202C541.758 79.0868 533.094 85.4496 521.135 85.4496C506.244 85.4496 497.309 75.928 497.309 60.4498C497.309 45.0167 506.334 34.9987 520.639 34.9987C534.718 34.9987 543.608 44.5203 543.608 59.2314V63.2476H510.26V64.0599C510.26 70.9641 514.637 75.7024 521.361 75.7024C526.189 75.7024 529.89 73.3107 531.108 69.6103Z" fill="white"/>
<path d="M495.819 36.0367L479.213 84.4117H464.321L447.579 36.0367H461.704L471.767 72.7692H472.038L482.056 36.0367H495.819Z" fill="white"/>
<path d="M417.932 84.4118V36.0368H430.657V44.7461H430.928C432.643 38.609 436.749 35.2697 442.435 35.2697C443.969 35.2697 445.278 35.4953 446.18 35.7661V47.3634C445.097 46.9122 443.292 46.5963 441.397 46.5963C434.899 46.5963 431.108 50.5674 431.108 57.3814V84.4118H417.932Z" fill="white"/>
<path d="M409.358 36.0367V84.4117H396.632V75.7024H396.361C393.97 81.7944 389.186 85.3142 381.876 85.3142C371.407 85.3142 364.457 78.5002 364.457 67.2187V36.0367H377.634V64.4661C377.634 70.9191 380.838 74.3486 386.659 74.3486C392.526 74.3486 396.181 70.1519 396.181 63.744V36.0367H409.358Z" fill="white"/>
<path d="M304.982 65.8649H318.113C318.745 71.2349 324.341 74.7547 331.561 74.7547C338.826 74.7547 343.79 71.28 343.79 66.4966C343.79 62.2548 340.676 59.9083 332.824 58.1483L324.341 56.2982C312.337 53.726 306.426 47.634 306.426 38.1124C306.426 26.1089 316.805 18.1668 331.335 18.1668C346.498 18.1668 356.019 25.9735 356.245 37.7514H343.474C343.023 32.2461 338.194 28.9067 331.38 28.9067C324.657 28.9067 320.144 32.1107 320.144 36.9392C320.144 40.9554 323.303 43.2117 330.794 44.9264L338.691 46.5961C351.732 49.3939 357.418 54.9895 357.418 64.9172C357.418 77.5525 347.174 85.5398 331.019 85.5398C315.361 85.5398 305.388 78.094 304.982 65.8649Z" fill="white"/>
<path d="M257.193 85.4496C242.573 85.4496 233.232 76.0634 233.232 60.179C233.232 44.5203 242.708 34.9987 257.193 34.9987C271.679 34.9987 281.155 44.4752 281.155 60.179C281.155 76.1085 271.814 85.4496 257.193 85.4496ZM257.193 75.3865C263.646 75.3865 267.753 69.9262 267.753 60.2242C267.753 50.6123 263.601 45.0618 257.193 45.0618C250.786 45.0618 246.589 50.6123 246.589 60.2242C246.589 69.9262 250.695 75.3865 257.193 75.3865Z" fill="white"/>
<path d="M202.952 84.4118V36.0368H215.678V44.7461H215.949C217.663 38.609 221.77 35.2697 227.456 35.2697C228.99 35.2697 230.299 35.4953 231.201 35.7661V47.3634C230.118 46.9122 228.313 46.5963 226.418 46.5963C219.92 46.5963 216.129 50.5674 216.129 57.3814V84.4118H202.952Z" fill="white"/>
<path d="M146.951 19.2949H173.44C186.797 19.2949 196.003 28.1847 196.003 41.5872C196.003 54.9444 186.481 63.8794 172.763 63.8794H160.579V84.4117H146.951V19.2949ZM160.579 30.08V53.2296H169.785C177.591 53.2296 182.149 49.0781 182.149 41.6323C182.149 34.2316 177.637 30.08 169.83 30.08H160.579Z" fill="white"/>
</svg>
