<svg width="63" height="63" viewBox="0 0 63 63" fill="none" xmlns="http://www.w3.org/2000/svg">
<path d="M31.5 0C14.112 0 0 14.112 0 31.5C0 48.888 14.112 63 31.5 63C48.888 63 63 48.888 63 31.5C63 14.112 48.888 0 31.5 0ZM31.5 9.45C36.729 9.45 40.95 13.671 40.95 18.9C40.95 24.129 36.729 28.35 31.5 28.35C26.271 28.35 22.05 24.129 22.05 18.9C22.05 13.671 26.271 9.45 31.5 9.45ZM31.5 54.18C23.625 54.18 16.6635 50.148 12.6 44.037C12.6945 37.7685 25.2 34.335 31.5 34.335C37.7685 34.335 50.3055 37.7685 50.4 44.037C46.3365 50.148 39.375 54.18 31.5 54.18Z" fill="white"/>
</svg>
